<svg width="12.062" height="16" version="1.1" viewBox="0 0 3.1913 4.2333" xmlns="http://www.w3.org/2000/svg"><path d="m0.18004 2.2597c-0.39818-0.715-0.031646-1.7197 0.71026-2.0828 0.64658-0.31649 1.4975-0.15691 1.9458 0.41772 0.42142 0.54011 0.46389 1.355 0.044708 1.9097-0.47112 0.6234-0.82485 1.1154-1.2745 1.7024 0 0-1.079-1.3232-1.4264-1.947zm1.5574 0.36672c0.5598-0.06672 1.0591-0.77661 0.87754-1.3484-0.18155-0.57183-0.84618-0.88687-1.3681-0.68551-0.5219 0.20136-0.80768 0.7968-0.64861 1.2926 0.15909 0.49577 0.57934 0.80809 1.1391 0.74138z" fill="#c60c30" stroke="#a5acaf" stroke-width=".033073"/><path d="m1.7374 2.6264c0.5598-0.066719 1.0591-0.77661 0.87754-1.3484-0.18155-0.57183-0.84618-0.88687-1.3681-0.68551-0.5219 0.20136-0.80768 0.79681-0.64861 1.2926 0.15909 0.49572 0.57934 0.80809 1.1391 0.74138z" fill="#fff" stroke="#a5acaf" stroke-width=".033073"/><path d="m0.81126 2.068c0 0.01108 0.008966 0.02004 0.020029 0.02004 0.011063 0 0.020098-9e-3 0.020098-0.02004s-0.009035-0.02009-0.020098-0.02009c-0.011063 0-0.020029 0.0091-0.020029 0.02009m0.003364 0c0-0.0093 0.007491-0.01668 0.016684-0.01668 0.009253 0 0.016704 0.0074 0.016704 0.01668 0 0.0092-0.007451 0.01673-0.016704 0.01673-0.009193 0-0.016684-0.0075-0.016684-0.01673m0.009708 0.0091c0 4.94e-4 4.5344e-4 9.9e-4 0.001089 9.9e-4h0.001436c6.4211e-4 0 0.001089-4.93e-4 0.001089-9.9e-4v-0.0067h0.004107l0.003118 7e-3c1.5239e-4 3.27e-4 5.4281e-4 9.9e-4 9.8963e-4 9.9e-4h0.00188c8.4069e-4 0 0.001337-9.9e-4 9.8963e-4 -0.0015-0.001139-2e-3 -0.002227-0.0045-0.003364-0.0066 0.001582-3.87e-4 0.004552-2e-3 0.004552-6e-3s-0.003414-0.0063-0.006887-0.0063h-0.007897c-5.9245e-4 0-0.001089 4.86e-4 -0.001089 9.89e-4zm0.003513-0.0099v-0.0064h0.005453c0.002079 0 0.003364 0.0015 0.003364 3e-3s-0.001288 3e-3 -0.003364 3e-3h-0.005453m1.5403-0.06561c-0.00119-0.0025-0.00592-0.0087-0.011291-0.0097-0.019188-0.0035-0.075721-0.01089-0.12092-0.02148-0.12149-0.02841-0.27441-0.08245-0.34396-0.06041-0.060284 0.0191-0.10386 0.08084-0.11698 0.10034-0.00341 0.0051 0.00262 0.0055 0.00262 0.0055h0.58404s0.00327-1.54e-4 0.00406-4.94e-4c8.407e-4 -4.93e-4 0.00317-0.0015 0.00317-4e-3 5.09e-5 -2e-3 5.428e-4 -0.0074-6.918e-4 -0.0096m-1.4734-0.016429c0.026956-0.0052 0.10711-0.01376 0.171-0.02717 0.17179-0.03593 0.39906-0.10003 0.49859-0.07618 0.096319 0.02306 0.14163 0.10257 0.15327 0.12669 0.00341 0.0071-0.00371 7e-3 -0.00371 7e-3h-0.82505s-0.011439-5e-5 -0.012033-0.0065c-3.8393e-4 -0.0045-0.004206-0.0195 0.017931-0.02385m0.6784-0.69333c0.063728 0.026971 0.097596-0.06285 0.057207-0.11333-0.00707-0.00995 6e-3 -0.00594 0.01139-0.00346 0.021186 0.010194 0.061531 0.033503 0.085424 0.088633 0.016209 0.037462-0.00547 0.094408-0.038474 0.10602-0.030736-0.014995-0.095963-0.044341-0.11555-0.077958m0.18548 0.51364c0.010707 0.01559-5.925e-4 0.03815-0.024482 0.01024-0.00831-0.0098-0.01516-0.02187-0.00845-0.02435 0.00675-0.0025 0.025392 3e-3 0.032933 0.01406m-0.15995-0.49963c-0.097645-0.061934-0.13126-0.060301-0.11724-0.18935 0.011063-0.075024 0.043719-0.11903 0.057721-0.13535 0.00722-0.00906 0.0082-0.00247 0.00665-7.92e-5 -0.11117 0.24485 0.056336 0.33021 0.052872 0.32479m-0.53619-0.20998c-0.00153-0.053977 0.050032-0.14766 0.050032-0.11667 0 0.032316-0.067429 0.24257 0.29971 0.48103 0.00406 0.00247 0.00558 0.00737 0.00228 0.00737-0.14829 4.986e-4 -0.22607-0.05663-0.27939-0.096879-0.058236-0.048548-0.078779-0.099372-0.085409-0.11982-0.00391-0.010887 0.00223-0.00747 0.00341-0.00569 0.02841 0.041223 0.10879 0.13103 0.1713 0.14608 0.0018839 4.295e-4 -0.16561-0.12655-0.16195-0.29542m0.46681-0.1858c-0.11211 0.16677-0.046351 0.2867-0.036673 0.30239 0.044748 0.072376 0.15285 0.11163 0.29767 0.22405 0.014329 0.011135 0.14001 0.13206 0.13452 0.25952-2.696e-4 0.01212-0.00148 0.02079 5.428e-4 0.02019 0.031677-0.0096 0.13189-0.16446 0.046927-0.30588-0.05509-0.091695-0.25061-0.22056-0.25158-0.22115-0.017317-0.010046 0.052744 0.00396 0.10825 0.031029 0.096844 0.046816 0.45845 0.26607 0.091292 0.59361-0.059255 0.05283-0.15475 0.1651-0.17268 0.18196-0.00282 3e-3 -0.00391 4.93e-4 -0.0044-1.78e-4 -0.019346-0.03227-0.0089-0.16515-0.22695-0.16543-0.11194-1.78e-4 -0.27168 0.0062-0.41083-0.0481-0.25335-0.098919-0.23968-0.30126-0.22058-0.38334 0.02087-0.1121 0.11724-0.14803 0.11576-0.14088-0.00951 0.045826-0.058444 0.19688 0.00317 0.30927 0.12449 0.25489 0.4362 0.15909 0.61704 0.22111 0.13144 0.04508 0.12402 0.11807 0.13604 0.14069 0.00497 0.0094 0.046767-0.05158 0.072862-0.1025 0.033705-0.06566 0.028816-0.1744-0.015695-0.25493-0.020725-0.037511-0.082993-0.10297-0.24957-0.20336-0.34283-0.20661-0.057513-0.47136-0.03509-0.45808m0.2449 1.1399h0.55782c0.00843 0 0.038098-4.93e-4 0.043976 4.93e-4 0.00641 0.0015 0.00521 0.03459-0.00163 0.03677-0.00651 9.9e-4 -0.45013 2.03e-4 -0.60062 2.03e-4 -0.00272-2.87e-4 -0.0045-0.0025-0.00521-0.0035-0.00139-2e-3 -0.00119-0.02856 0-0.03088 0.00139-0.0025 0.00341-0.0025 0.00568-3e-3m-0.89932 0h0.082455c0.001238 0 0.011568 1.78e-4 0.013963 1.78e-4 0.014082 0 0.003267 0.03222 0.002277 0.03439-0.002572 0.0035-0.014873 0.0025-0.01614 0.0025h-0.082537c-0.002572-3.48e-4 -0.005759-2e-3 -0.005858-3e-3 -2.0336e-4 -0.0025-2.0336e-4 -0.02781-2.0336e-4 -0.02999 0-0.0025 0.003513-0.0035 0.006066-4e-3m0.26389 0c0.068013 0 0.19391 1.78e-4 0.3101-4.94e-4 0.13965-9.9e-4 0.26162 9.9e-4 0.26943 9.9e-4 8.903e-4 0 0.00421 2e-3 0.0047 4e-3 0.00198 7e-3 0.00163 0.02227-8.407e-4 0.02964-6.918e-4 2e-3 -0.00183 0.0035-0.00386 4e-3 -0.00657 1.04e-4 -0.58518 0-0.59077 0-0.00252 0 0.0043-0.03256 0.00571-0.03474 9.896e-4 -0.0015 0.00282-0.0025 0.00551-3e-3m-0.0654 0.04612-0.00223 0.0072c-5.428e-4 2e-3 -0.00178 0.0035-0.00267 0.0035l-0.020672-1.76e-4 -0.013696 0.04449c-3.641e-4 9.89e-4 -0.00238 0.0025-0.00426 0.0025l-0.00753-4.8e-5c-0.00188-1.9e-5 -0.00327-9.89e-4 -0.00292-0.0025l0.013705-0.04454-0.020642-1.53e-4c-8.407e-4 0-0.00114-0.0015-5.428e-4 -0.0035l0.00218-0.0072c5.428e-4 -2e-3 0.00183-0.0035 0.00267-0.0035l0.020642 1.49e-4 0.00634-0.02064c3.773e-4 -9.9e-4 0.00242-0.0025 0.00426-2e-3l0.00755 4.9e-5c0.00188 2.5e-5 0.00327 9.9e-4 0.00287 0.0025l-0.00634 0.02059 0.020662 1.49e-4c8.407e-4 2.4e-5 0.00114 0.0015 5.428e-4 0.0035zm-0.075405-0.04572c-0.004305 0.04955-0.023403 0.07923-0.04645 0.10215-0.007026 7e-3 -0.024036 0.01881-0.02465 0.01881 0.005967 0.0054 0.073119 0.0035 0.079462 0.0035 0.00238 0.01034-0.00124 0.02722-0.01237 0.06433 0.041502-4e-3 0.089669-0.04281 0.10072-0.09069 0.00307-0.01321 0.00835-0.03004 0.010598-0.04538 0.00391-0.02638 0.00932-0.05183 0.00932-0.0527h-0.11664" fill="#231f20" stroke-width=".25001"/></svg>
