<?xml version="1.0" encoding="UTF-8"?>
<svg width="9.5738mm" height="12.7mm" version="1.1" viewBox="0 0 9.5738 12.7" xmlns="http://www.w3.org/2000/svg"><g transform="matrix(1.4949 0 0 1.4949 .016888 .016705)" fill="#231f20"><path d="m0.32975 4.5324c-0.80475-1.4448-0.06396-3.475 1.4355-4.2088 1.3068-0.63953 3.0266-0.31707 3.9327 0.84409 0.85173 1.0914 0.93756 2.7381 0.09036 3.8589-0.95217 1.2597-1.6671 2.2539-2.5758 3.4401 0 0-2.1807-2.6738-2.8828-3.9343zm3.1477 0.74103c1.1314-0.13482 2.1405-1.5693 1.7736-2.7248-0.36693-1.1555-1.7102-1.7921-2.765-1.3852-1.0548 0.40688-1.6324 1.6101-1.3109 2.6119 0.32153 1.0018 1.1709 1.6329 2.3023 1.4981z" stroke="#a5acaf" stroke-width=".022124"/><path d="m3.4774 5.2734c1.1314-0.13482 2.1405-1.5693 1.7736-2.7248-0.36693-1.1555-1.7102-1.7921-2.765-1.3852-1.0548 0.40688-1.6324 1.6101-1.3109 2.6119 0.32153 1.0017 1.1709 1.6329 2.3023 1.4981z" fill="#fff" stroke="#a5acaf" stroke-width=".022124"/><path d="m1.6055 4.145c0 0.0224 0.01812 0.0405 0.04048 0.0405s0.04062-0.0181 0.04062-0.0405c0-0.0223-0.01826-0.0406-0.04062-0.0406s-0.04048 0.0183-0.04048 0.0406m0.0068 0c0-0.0187 0.01514-0.0337 0.03372-0.0337 0.0187 0 0.03376 0.015 0.03376 0.0337 0 0.0186-0.01506 0.0338-0.03376 0.0338-0.01858 0-0.03372-0.0151-0.03372-0.0338m0.01962 0.0184c0 1e-3 9.19e-4 2e-3 0.0022 2e-3h0.0029c0.0013 0 0.0022-1e-3 0.0022-2e-3v-0.0135h0.0083l0.0063 0.0141c3.08e-4 6.6e-4 0.0011 2e-3 2e-3 2e-3h0.0038c0.0017 0 0.0027-2e-3 2e-3 -3e-3 -0.0023-4e-3 -0.0045-9e-3 -0.0068-0.0133 0.0032-7.8e-4 0.0092-4e-3 0.0092-0.0122 0-8e-3 -0.0069-0.0127-0.01392-0.0127h-0.01596c-0.0012 0-0.0022 9.8e-4 -0.0022 2e-3zm0.0071-0.02v-0.0129h0.01102c0.0042 0 0.0068 3e-3 0.0068 6e-3s-0.0026 6e-3 -0.0068 6e-3h-0.01102m3.113-0.13258c-0.0024-5e-3 -0.01196-0.0176-0.02282-0.0196-0.03878-7e-3 -0.15304-0.022-0.24439-0.0434-0.24555-0.0574-0.5546-0.1666-0.69518-0.12206-0.12184 0.0386-0.20991 0.16335-0.23643 0.20275-0.0069 0.0103 0.0053 0.0111 0.0053 0.0111h1.1804s0.0066-3.1e-4 0.0082-1e-3c0.0017-1e-3 0.0064-3e-3 0.0064-8e-3 1.03e-4 -4e-3 0.0011-0.0149-0.0014-0.0194m-2.9778-0.0332c0.05448-0.0105 0.21647-0.0278 0.34561-0.0549 0.34721-0.0726 0.80653-0.20214 1.0077-0.15394 0.19467 0.0466 0.28625 0.20726 0.30977 0.25601 0.0069 0.0143-0.0075 0.0141-0.0075 0.0141h-1.6675s-0.02312-1e-4 -0.02432-0.0131c-7.76e-4 -9e-3 -0.0085-0.0394 0.03624-0.0482m1.3711-1.401c0.1288 0.0545 0.19725-0.127 0.11562-0.229-0.01428-0.0201 0.01212-0.012 0.02302-7e-3 0.04282 0.0206 0.12436 0.0677 0.17265 0.1791 0.03276 0.0757-0.01106 0.19077-0.07776 0.21423-0.06212-0.0303-0.19395-0.0896-0.23353-0.15753m0.37487 1.0379c0.02164 0.0315-0.0012 0.0771-0.04948 0.0207-0.0168-0.0198-0.03064-0.0442-0.01708-0.0492 0.01364-5e-3 0.05132 6e-3 0.06656 0.0284m-0.32327-1.0096c-0.19735-0.12515-0.26529-0.12185-0.23695-0.38262 0.02236-0.1516 0.08836-0.24053 0.11666-0.27351 0.0146-0.0183 0.01658-5e-3 0.01344-1.6e-4 -0.22469 0.49477 0.11386 0.66726 0.10686 0.6563m-1.0837-0.4243c-0.0031-0.10907 0.10112-0.29838 0.10112-0.23575 0 0.0653-0.13628 0.49015 0.60574 0.97201 0.0082 5e-3 0.01128 0.0149 0.0046 0.0149-0.29971 1e-3 -0.4569-0.11444-0.56466-0.19577-0.1177-0.0981-0.15922-0.2008-0.17262-0.24212-0.0079-0.022 0.0045-0.0151 0.0069-0.0115 0.05742 0.0833 0.21987 0.26477 0.34621 0.29519 0.0038 8.7e-4 -0.33473-0.25571-0.32733-0.59696m0.94347-0.37544c-0.22659 0.33699-0.09368 0.57934-0.07412 0.61104 0.09044 0.14625 0.30893 0.22557 0.60162 0.45274 0.02896 0.0225 0.28297 0.26685 0.27187 0.52442-5.45e-4 0.0245-3e-3 0.042 0.0011 0.0408 0.06402-0.0193 0.26655-0.33233 0.09484-0.6181-0.11134-0.18529-0.5065-0.44568-0.50846-0.44688-0.035-0.0203 0.1066 8e-3 0.21879 0.0627 0.19573 0.0946 0.92657 0.53764 0.18451 1.1995-0.11976 0.10676-0.31277 0.33361-0.34901 0.36769-0.0057 6e-3 -0.0079 1e-3 -0.0089-3.6e-4 -0.0391-0.0652-0.01798-0.33371-0.45868-0.33429-0.22625-3.6e-4 -0.5491 0.0125-0.83033-0.0972-0.51204-0.19988-0.4844-0.60874-0.4458-0.7746 0.04218-0.22653 0.23695-0.29913 0.23397-0.28467-0.01922 0.0926-0.11812 0.39783 0.0064 0.62494 0.25161 0.51506 0.88161 0.32147 1.2471 0.44679 0.26565 0.0911 0.25065 0.23859 0.27495 0.28429 0.01004 0.0189 0.09452-0.10422 0.14726-0.20712 0.06812-0.13269 0.05824-0.3524-0.03172-0.51514-0.04188-0.0758-0.16773-0.20807-0.5044-0.41092-0.6929-0.41749-0.11624-0.95247-0.07092-0.92565m0.49496 2.3033h1.1274c0.01704 0 0.077-1e-3 0.08888 1e-3 0.01296 3e-3 0.01054 0.0699-0.0033 0.0743-0.01316 2e-3 -0.90975 4.1e-4 -1.2139 4.1e-4 -0.0055-5.8e-4 -0.0091-5e-3 -0.01054-7e-3 -0.0028-4e-3 -0.0024-0.0577 0-0.0624 0.0028-5e-3 0.0069-5e-3 0.01148-6e-3m-1.8176 0h0.16665c0.0025 0 0.02338 3.6e-4 0.02822 3.6e-4 0.02846 0 0.0066 0.0651 0.0046 0.0695-0.0052 7e-3 -0.03006 5e-3 -0.03262 5e-3h-0.16681c-0.0052-7e-4 -0.01164-4e-3 -0.01184-6e-3 -4.11e-4 -5e-3 -4.11e-4 -0.0562-4.11e-4 -0.0606 0-5e-3 0.0071-7e-3 0.01226-8e-3m0.53334 0c0.13746 0 0.39191 3.6e-4 0.62674-1e-3 0.28225-2e-3 0.52876 2e-3 0.54454 2e-3 0.0018 0 0.0085 4e-3 0.0095 8e-3 4e-3 0.0142 0.0033 0.045-0.0017 0.0599-0.0014 4e-3 -0.0037 7e-3 -0.0078 8e-3 -0.01328 2.1e-4 -1.1827 0-1.194 0-0.0051 0 0.0087-0.0658 0.01154-0.0702 2e-3 -3e-3 0.0057-5e-3 0.01114-6e-3m-0.13218 0.0932-0.0045 0.0145c-0.0011 4e-3 -0.0036 7e-3 -0.0054 7e-3l-0.04178-3.6e-4 -0.02768 0.0899c-7.39e-4 2e-3 -0.0048 5e-3 -0.0086 5e-3l-0.01522-1e-4c-0.0038-4e-5 -0.0066-2e-3 -0.0059-5e-3l0.0277-0.09-0.04172-3.1e-4c-0.0017 0-0.0023-3e-3 -0.0011-7e-3l0.0044-0.0145c0.0011-4e-3 0.0037-7e-3 0.0054-7e-3l0.04172 3e-4 0.01282-0.0417c7.6e-4 -2e-3 0.0049-5e-3 0.0086-4e-3l0.01526 1e-4c0.0038 5e-5 0.0066 2e-3 0.0058 5e-3l-0.01282 0.0416 0.04176 3e-4c0.0017 5e-5 0.0023 3e-3 0.0011 7e-3zm-0.1524-0.0924c-0.0087 0.10013-0.0473 0.16011-0.09388 0.20641-0.0142 0.0141-0.04858 0.038-0.04982 0.038 0.01206 0.011 0.14778 7e-3 0.1606 7e-3 0.0048 0.0209-0.0025 0.055-0.025 0.13 0.08388-8e-3 0.18123-0.0865 0.20357-0.18325 0.0062-0.0267 0.01688-0.0607 0.02142-0.0917 0.0079-0.0533 0.01884-0.10473 0.01884-0.10649h-0.23573" stroke-width=".16724"/></g></svg>
